# xmcd
#
# Track frame offsets: 
#        150
#        17775
#        38058
#        53793
#        71493
#        106726
#        127792
#        144091
#        162016
#        186387
#        210537
#        230037
#        251039
#
# Disc length: 3560 seconds
#
# Revision: 0
# Processed by: cddbd v1.5.2PL0 Copyright (c) Steve Scherf et al.
# Submitted via: ExactAudioCopy v1.3
#
DISCID=aa0de60d
DTITLE=Fred Chapellier and The Gents Featuring Dale Blade - Set Me Free
DYEAR=2018
DGENRE=Blues
TTITLE0=Ain't No Fool
TTITLE1=Set Me Free
TTITLE2=My Reason To Live
TTITLE3=Love Holiday
TTITLE4=Crying With The Blues
TTITLE5=The Gents
TTITLE6=I'm Back
TTITLE7=I Don't Wanna Know
TTITLE8=The Clock
TTITLE9=Old School Blues
TTITLE10=Bet On the Blues
TTITLE11=3'45 Am
TTITLE12=Thank You Lord
EXTD=
EXTT0=
EXTT1=
EXTT2=
EXTT3=
EXTT4=
EXTT5=
EXTT6=
EXTT7=
EXTT8=
EXTT9=
EXTT10=
EXTT11=
EXTT12=
PLAYORDER=
